<svg width="17" height="18" viewBox="0 0 17 18" fill="none" xmlns="http://www.w3.org/2000/svg">
<path d="M3.02709 18C2.50869 18 2.06743 17.8204 1.70331 17.4613C1.3392 17.1021 1.15714 16.6672 1.15714 16.1566V2.02029H0V0.878884H4.62857V0H11.5714V0.878884H16.2V2.02029H15.0429V16.1566C15.0429 16.6817 14.8647 17.1204 14.5083 17.4727C14.1519 17.825 13.7067 18.0008 13.1729 18H3.02709ZM13.8857 2.02029H2.31429V16.1566C2.31429 16.3613 2.38101 16.5295 2.51447 16.6611C2.64793 16.7928 2.8188 16.8586 3.02709 16.8586H13.1741C13.3515 16.8586 13.5147 16.7855 13.6635 16.6394C13.8124 16.4933 13.8865 16.332 13.8857 16.1555V2.02029ZM5.56354 14.5758H6.72069V4.30311H5.56354V14.5758ZM9.47931 14.5758H10.6365V4.30311H9.47931V14.5758Z" fill="black"/>
</svg>
